<svg version="1" xmlns="http://www.w3.org/2000/svg" width="682.667" height="682.667" viewBox="0 0 512.000000 512.000000"><path d="M210.5 1.5c-33.3 6-48.5 12.1-76 30.3-21.8 14.5-38.9 29.3-44.7 38.7-2.1 3.4-2.4 8.5-.6 10.3 2.2 2.2 4.9 1.7 28.3-5.3 21.1-6.3 24.2-6.8 40.5-6.9 15.1-.1 15.7 0 21.2 2.7 6.5 3.2 9.2 6.4 11 13 1.7 6.7-.1 14.8-6.4 27.7-6.9 14.3-7.8 18.4-7.8 35.6 0 18.6-2.7 31.5-10.5 50.9-7.9 19.4-8 19.6-14.6 27.4-3.2 3.9-5.9 7.6-5.9 8.2 0 .5-.4.7-1 .4-.5-.3-2 .1-3.2.9-1.4 1-4.5 1.6-8.3 1.6-6.8 0-36.4 3.3-50 5.5-36.5 5.9-60.6 18.7-69.6 37-3.1 6.3-3.4 7.9-3.7 17.5-.4 9.5-.2 11.2 1.8 15 3.4 6.7 11.5 14.6 21 20.4 9.4 5.8 25.1 13.6 27.4 13.6.8 0 1.8.4 2.1 1 .3.5 1.4 1 2.3 1 .9 0 2.8.6 4.2 1.3 1.4.8 3.4 1.6 4.5 1.9 8.6 2.6 23.9 6.8 28.3 7.8l5.2 1.2v5.1c0 23.7 7.8 52 19.8 72.2 20.8 35 52 57.9 93.2 68.3 9.6 2.4 12.2 2.7 30.5 2.7 21.9 0 28.5-.9 45.7-6.6 51.2-16.7 89-61.1 97.3-114.5 1.2-7.7 1.6-15.1 1.4-27-.3-14-.2-16.5 1.1-16.8.8-.3 4.7-1.2 8.5-2 47.4-10.9 79.3-22.9 88.5-33.4 3.7-4.1 4-5 4-10.1 0-15-15.3-29.3-42-39.1-4.5-1.7-9.9-3.5-11.9-4-12.7-3.2-17.1-4.2-23.5-5.4-9.9-2-35.6-5.8-47.7-7.1l-5.6-.6-2.7-8.7c-3.8-12-6.5-20.7-8.2-27.2-.9-3-2.2-8-3-11-2.7-9.7-8.5-32.4-9.4-37-3.5-16.8-5.3-23.8-8.5-33.4-5-15.1-12.7-31.9-22.2-48.6-1.1-1.9-3.6-8.9-5.7-15.5-5.1-16.7-7.4-22.1-11.7-28.6-15.3-22.8-51.8-36.1-83.4-30.4zm37 13.5c-.3.5-1.4 1-2.3 1-1.5 0-1.5-.2-.2-1 2-1.3 3.3-1.3 2.5 0zm17.8 1.1c1.2.6 3.9 2.7 6 4.7 3.1 3 3.7 4.3 3.7 7.8 0 3.2-.7 4.8-3 7.3-1.7 1.7-3.2 3.1-3.3 3.1-.2 0-.2-2.5.1-5.5.4-5.2.3-5.6-3-8.9-4.1-4.1-9.3-5.4-15-3.7-2.2.7-4.2 1-4.5.7-.7-.6 2.2-3.6 3.5-3.6.5 0 2.3-.7 3.8-1.5 3.4-1.8 8.7-1.9 11.7-.4zm-90 8.3l5.4 3.4 5.8-1.9c3.2-1 6.1-1.7 6.3-1.4.3.3-.4 2.4-1.7 4.7l-2.2 4.2 4.3 3.7 4.3 3.8-6.6-.6c-6.2-.5-6.6-.4-8.2 2.1-2.3 3.4-3.9 3.3-5.8-.6-1.3-2.7-2.3-3.3-7.2-4.3-3.1-.6-5.9-1.4-6.2-1.7-.4-.3 1.4-1.4 4-2.3 4.9-1.9 5-2.4 2-8.7-1.1-2.3-1-3.8.1-3.8.2 0 2.8 1.5 5.7 3.4zm108.3.3c7.7 8 13.4 17.8 13.4 22.9 0 1.3.5 2.4 1 2.4.6 0 1 1.1 1 2.4 0 1.4.5 2.8 1 3.1.6.3 1 1.9 1 3.6 0 1.6.5 2.9 1 2.9.6 0 1 1.3 1 2.9 0 1.7.5 3.3 1 3.6.6.3 1 1.7 1 3s.3 2.5.8 2.7c1.3.6 12.2 21.7 18.4 35.8 1.1 2.5 2.4 5.3 2.9 6.2.5 1 .9 2.7.9 3.7 0 1.1.5 2.3 1 2.6.6.3 1 1.6 1 2.9 0 1.2.3 2.6.7 3 1.5 1.5 3 9.9 2.3 12.5-.5 1.6-.9 1.9-.9.8-.1-.9-.4-1.7-.9-1.7-.7 0-1.6-1.7-5.2-9.2-.7-1.4-.9-3.2-.5-3.9.5-.8.4-1-.3-.5-.8.4-1.2 0-1.2-1.1 0-1-.7-2.9-1.6-4.1-.8-1.2-1.2-2.7-.9-3.2.3-.6.1-1-.5-1-.7 0-.9-.7-.6-1.6.3-.8.2-1.3-.2-1-.4.2-1.9-1.8-3.4-4.5-1.5-2.8-2.1-4.9-1.4-4.9.6-.1 0-.7-1.4-1.4-1.4-.8-2.8-1.2-3.2-1-.4.2-.5-.7-.2-2.1.3-1.8 0-2.5-1.1-2.5-.8 0-1.5-.5-1.5-1.1 0-.5.6-.7 1.3-.3.8.5.8.2-.2-.9-1.5-1.8-2.6-2.3-1.6-.7.3.5.1 1-.4 1-.6 0-1.1-.7-1.1-1.5s-.5-1.5-1.1-1.5c-.6 0-.9-.6-.6-1.3.2-.6-.3-1.7-1-2.2-.8-.6-1.5-1.8-1.6-2.7-.2-.9-.9-2.3-1.7-3.2-2.2-2.7-6-10.8-6-12.8 0-1-.4-1.8-.9-1.8s-1.2-1.1-1.5-2.5c-.4-1.4-1.1-2.5-1.7-2.5-.6 0-.7.4-.4 1 1.2 2-.2.9-3.6-2.7-1.8-2.1-2.4-2.9-1.1-1.9 1.2 1.1 2.2 1.4 2.2.8 0-.7.5-1.2 1.1-1.2.6 0 .9.9.6 2-.3 1.1-.1 1.8.4 1.4 1.5-.9 1-3.3-1-4.3-1-.6-2-.8-2.3-.6-.3.3-1.5-.6-2.8-2-2.7-2.8-5-3.4-2.9-.8 1.3 1.6 1.2 1.7-.4.4-.9-.8-1.5-1.6-1.2-1.9.3-.3-.1-1.2-.8-2.1-1.1-1.4-1-1.5.7-.1 1.8 1.4 1.9 1.4.8-.7-.7-1.2-1.7-2.5-2.4-2.9-.7-.5-.8-.3-.3.7.8 1.2.6 1.2-.8.1-.9-.8-2.2-1-2.9-.6-1 .6-.9.3.1-.9 1.2-1.5.9-2.1-1.1-1.8-1.3.2-1-.4 2.1-3.8 1.6-1.8 3.5-4.6 4.2-6.2.7-2 1.7-2.8 2.6-2.5.8.3 2.1 0 2.8-.8 1.2-1.2 1.1-1.5-.5-1.9-1.3-.3-1.8-1.1-1.4-2 .6-1.6-1.2-5.7-3-6.9-.8-.5-.7-.8.2-.8.6 0 2.8 1.7 4.8 3.7zM261 28.8c0 .7.5 1 1.2.6.6-.4.8-.3.4.4-.3.5-.1 1.2.6 1.4.8.3.8.9.1 2.2-.9 1.6-1.1 1.6-2.2.2-.8-.9-1-1.6-.5-1.6s-.2-.6-1.5-1.3c-3.5-1.7-3.9-3.7-.7-3.5 1.4.1 2.6.8 2.6 1.6zm-35.1.3c14 4.4 21 8.1 31.1 16.6 5.1 4.3 16 19.8 16 22.9 0 .8.5 1.4 1 1.4.6 0 1 1 1 2.3 0 1.3.4 2.7.9 3.2 1.5 1.6 2.7 12 1.2 11.1-.6-.4-.8-1.2-.5-1.8.5-.8.1-.9-1.2-.4-1 .4-1.6.4-1.2.1.7-.8-3.4-5.3-4.4-4.8-.4.2-.5-.2-.2-1s0-1.8-.7-2.3c-.8-.4-1-.3-.5.4.4.7.2 1.2-.5 1.2-.6 0-.9-.8-.6-2 .3-1.1.1-1.8-.4-1.4-.5.3-.9-1-.9-2.9 0-2.4-.8-4.1-3.1-6.3-2.7-2.5-3-3.4-2.6-7 .2-2.3 0-4.9-.6-5.9-.8-1.5-1.1-1.3-2.4 1.6-.8 1.9-1.9 4.3-2.5 5.3-.9 1.6-.3 2.5 3.1 5.5 2.3 2 4.1 4 4.1 4.5s-2.5.6-5.5.3l-5.5-.6-2.6 4.5c-1.4 2.4-2.8 4.4-3 4.4-.2 0-1.3-2-2.5-4.5-2.2-4.8-5.6-6.5-12.7-6.5-3.9 0-3.1-1.3 3.1-4.5 4.1-2.1 4.4-3.3 2.5-9.6-1.1-3.5-2-4.5-6.3-6.4-6.4-3-18.7-5.4-24.7-4.9-4.4.3-4.6.2-4.4-2 .2-1.7-.3-2.6-1.5-2.9-1.6-.4-3.7-5.2-2.8-6.2.2-.2 2.9-.6 5.9-1 3-.4 5.7-.9 5.9-1.1.9-.9 14.7-.3 18 .7zM124.7 44c-1.4 1.1-2.9 2-3.3 2-.4 0 .3-.9 1.6-2s2.7-2 3.3-2c.5 0-.2.9-1.6 2zm10.2 10c3.8 1.9 4.3 1.9 7 .5 1.7-.8 3.3-1.9 3.6-2.5 1.1-1.7 2.5-1.1 2.5 1.1 0 2.8-5.3 7.9-8.3 7.9-7 0-13.7-6-13.7-12.2 0-5.1 1.2-5.5 3.2-.9 1.2 2.9 2.8 4.6 5.7 6.1zm12.5-8.2c.3.5-.1.9-.9.9s-1.2-.4-.9-.9c.3-.4.7-.8.9-.8.2 0 .6.4.9.8zm15.3.8c-.3.3-1.2.4-1.9.1-.8-.3-.5-.6.6-.6 1.1-.1 1.7.2 1.3.5zm-43.5 2c-1.2.8-2.2 2.2-2.2 3 0 .8-.6 1.4-1.2 1.4-.9 0-1 .2-.2.8.6.4 1.5 1.7 1.8 3 .4 1.2 1.9 3.5 3.3 5 2.1 2.2 2.2 2.8.9 3-.9.2-1.6.8-1.6 1.4 0 .5-.7.8-1.5.4-.8-.3-1.5 0-1.6.7 0 .8-.2.8-.6-.1-.3-.9-1-.4-1.9 1.4-1.2 2.2-1.2 2.9-.2 3.6.9.5.7.8-.7.9-1.1.1-2.3.1-2.7 0-.5 0-.8.3-.8.9 0 .5-.9 1-1.9 1-1.1 0-2.2.4-2.5.9-.3.5-2.7 1.2-5.3 1.6-2.7.3-5.8.9-7 1.2-7.1 1.7 2.2-12.3 15.7-23.7 2.9-2.5 5.8-5 6.4-5.6 1.2-1.2 3.5-2.2 5.1-2.3.5-.1-.1.6-1.3 1.5zm.8 1.8c0 .3-.4.8-1 1.1-.5.3-1 .1-1-.4 0-.6.5-1.1 1-1.1.6 0 1 .2 1 .4zm31.3 14.3c-.7.2-2.1.2-3 0-1-.3-.4-.5 1.2-.5 1.7 0 2.4.2 1.8.5zm43.4 34.5c-.2 1.3-.4.5-.4-1.7-.1-2.2.1-3.2.4-2.3.2 1 .2 2.8 0 4zm8.5 3.6c-.7.2-1.2.9-1.2 1.6 0 2.3-6.3 10.8-8.6 11.7-4.6 1.7-6.8-1.3-4.4-6.1.6-1.1 1.5-2.9 2-4 .6-1.1 1-2.8 1.1-3.7 0-1 .3-1.3.5-.6.3.7 1.9 1 4.2.6 2.8-.3 3.3-.2 2.2.6-.8.6-1 1.1-.5 1.1.6 0 1.9-1 3-2.2 1.4-1.7 2-1.9 2.3-.8.3.8 0 1.6-.6 1.8zm81.2 13.4c2.7 2.5 5.5 2.7 8.1.8.6-.4 2.5-1.1 4.4-1.5l3.4-.7-2.2 3c-1.1 1.7-2.1 3.7-2.1 4.6 0 .9-.4 1.6-1 1.6-1.9 0-1 2.7 2 5.5 1.7 1.6 2.9 3.3 2.7 3.9-.2.5-2.8.9-5.8.8-5.3-.3-5.5-.2-7.8 3.5l-2.4 3.8-1.3-3c-.7-1.7-1.3-3.8-1.4-4.7 0-1.2-1.8-2.2-6-3.4-4.6-1.4-5.7-2.1-4.8-3.1.6-.7 1.6-1.3 2.2-1.3.6 0 2.3-1 3.9-2.3 2.5-2 2.6-2.5 1.7-5.7-.5-1.9-1-4.6-1-5.9v-2.4l2.3 2c1.2 1.1 3.5 3.1 5.1 4.5zm50.3 31c-.2 1.3-.4.5-.4-1.7-.1-2.2.1-3.2.4-2.3.2 1 .2 2.8 0 4zM203 159c4.4 6.1 13.3 7.7 20 3.5 4.7-3 5.4-1.6 1.8 4-2.2 3.4-7.8 6.5-11.7 6.5-2.9 0-8.1-2.1-7.5-3.1.3-.5-.2-.6-1-.3-1.9.7-6.8-4.1-8.6-8.5-1.1-2.7-1.1-3.9 0-7 1.9-5.2 3.4-5.7 4.3-1.5.4 2 1.6 4.9 2.7 6.4zm133.7-5.8c-.3.7-.5.2-.5-1.2s.2-1.9.5-1.3c.2.7.2 1.9 0 2.5zm2 8c-.3.8-.6.5-.6-.6-.1-1.1.2-1.7.5-1.3.3.3.4 1.2.1 1.9zM321 164c0 .5-.3 1-.8 1-2.9 0-4.4 12.9-2 17.1 2.8 5 4.9 6 11.6 5.6 3.4-.1 6.2-.1 6.2.1 0 .3-1.2 1.5-2.7 2.9-6 5.2-15.4 5.4-19.9.6-1.3-1.4-2.2-2.8-2-3.1.3-.2-.1-1.1-.9-1.9-2.3-2.2-1.9-12.1.5-16.1 2.7-4.3 10-8.9 10-6.2zm-145.3 21.2c-.3.8-.6.5-.6-.6-.1-1.1.2-1.7.5-1.3.3.3.4 1.2.1 1.9zm94.8 21.8c5.2 3.6 5.1 3.6 11.1 1 2.6-1.1 4.9-1.9 5.1-1.6.2.2-.5 2.5-1.7 5.1l-2.2 4.8 4.3 4.3 4.3 4.4h-6.6c-6.5 0-6.5 0-9.2 4-1.4 2.2-3 4-3.5 4s-1.6-1.9-2.3-4.3c-1.6-4.6-4.4-6.7-9.5-6.7-4.9 0-4.7-1.5.5-4.2l4.7-2.5-.2-5.6c-.1-3.2 0-5.7.3-5.7s2.5 1.3 4.9 3zm-80 30c1.1 0 3.9-.7 6.2-1.6 2.4-.9 4.6-1.4 4.9-1.1.3.3-.6 2.6-2 5.1-3.1 5.6-3.2 6.1-.5 8.9 1.1 1.2 2.5 3 3 4 .9 1.6.5 1.7-4.6 1.1-5.2-.6-5.7-.5-8 2.2-1.4 1.6-2.5 3.3-2.5 3.7 0 2.3-1.9-.8-2.9-4.6-1-4.2-1.3-4.5-6.6-6.1-3-1-5.5-2.1-5.5-2.4.1-.4 2-1.6 4.3-2.8l4.2-2-.3-6.5-.4-6.4 4.4 4.2c2.4 2.4 5.2 4.3 6.3 4.3zm-44 6.5c.4 3.6 1.1 6.5 1.6 6.5s.9 1.1.9 2.4c0 1.4.5 2.8 1.1 3.1.5.4.8 2.1.5 3.8-.3 1.8-.3 2.6 0 1.9 1-2.2 2.4-1.2 2 1.5-.2 1.6-.1 2.2.1 1.5.7-2 2.2-.4 1.6 1.8-.6 2.2 1.4 5.3 2.8 4.4.5-.3.6.1.3.9-.5 1.3 6.4 8.7 12.6 13.5 8.1 6.3 22.4 12.6 39.3 17.3 2.6.7 4.7 1.7 4.7 2.1 0 .4-1 .4-2.2-.1-1.3-.4-2.8-.6-3.4-.4-.6.2-5-.6-9.8-1.7-10.1-2.3-9.6-2.3-9.6-1 0 .5.7 1 1.5 1s1.5.4 1.5.8 1.6 1.4 3.5 2.1c2.8 1 3.2 1.5 2.2 2.5-.6.8-1.7 1.2-2.3.9-.6-.2-1.4.3-1.8 1.2-.3.9-1.1 1.3-1.8.9-.7-.5-.9-.2-.5.9.5 1.4.2 1.4-3.4.2-2.1-.8-3.9-1.2-3.9-.8 0 .3-.6.1-1.2-.5-.7-.5-2.4-1-3.8-1-2.1 0-2.6.5-2.5 2.7 0 2.1-.5 2.7-2.7 2.9-3.7.4-3.6 1.9.2 2.7 1.7.4 3 1.1 3 1.6 0 1.2-1.7 1.2-2.5-.1-.3-.6-1.5-1-2.6-1-1 0-1.9-.4-1.9-1 0-.5-1.6-1.2-3.5-1.6-3.5-.6-4.6-1.9-2.2-2.7.6-.2.2-.2-1.1 0-1.9.3-7.4-1.9-9.2-3.7-.3-.3-2.5-1.8-4.9-3.4-5.6-3.6-14.1-11.5-14.1-13 0-.6-.9-1.8-2-2.6s-2-2-2-2.6c0-.7-.4-1.4-.8-1.6-1-.4-5.2-9.3-5.2-11.1 0-.7-.4-1.7-.9-2.2-.5-.6-1.1-3-1.4-5.5-.2-2.5-.7-5.6-1-6.9-.4-1.4-.3-2.9.2-3.5.5-.6 1.1-2.2 1.3-3.5.2-1.6 1.6-3.1 4.3-4.5 3.5-1.8 7.4-4.8 12.1-9.4.8-.7 1.8-1.1 2.3-.7.5.3 1.2.1 1.6-.5 1.4-2.3 2.4-.6 3 5.5zm-50.8 1.1c-.3.3-1.2.4-1.9.1-.8-.3-.5-.6.6-.6 1.1-.1 1.7.2 1.3.5zm-18.4 3.1c-.7.2-1.9.2-2.5 0-.7-.3-.2-.5 1.2-.5s1.9.2 1.3.5zm-7 2c-.7.2-2.1.2-3 0-1-.3-.4-.5 1.2-.5 1.7 0 2.4.2 1.8.5zm-5.8 1.3c-.3.5-1.3 1-2.1 1s-1.4-.5-1.4-1c0-.6.9-1 2.1-1 1.1 0 1.7.4 1.4 1zm258 3c4.5 4.5 4.9 4.6 8.9 2.5 1.5-.8 3.6-1.5 4.6-1.5 1.7 0 1.6.4-.6 4.7-1.3 2.7-2.4 5.1-2.4 5.4 0 .3 1.1 1.9 2.5 3.5 3.5 4.1 3.2 4.8-2 4.1-4.4-.6-4.6-.5-7.4 3.3-3.1 4.4-4.6 4-5.3-1.3-.2-2.4-1.1-3.2-4.3-4.3-2.2-.7-4.8-1.4-5.7-1.4-3.1 0-1.9-1.8 2.8-4l4.5-2.2-.6-6.4c-.4-3.5-.3-6.4.1-6.4.5.1 2.7 1.9 4.9 4zM58 252.7c-1.4.3-2.7.8-3 1.2-.5.8-7.4 4.1-8.4 4.1C44 258 26 272.3 26 274.4c0 .4-.8 2-1.9 3.4-5.1 7.4-8.3 26.4-5.2 31.9.6 1.3.9 2.3.6 2.3-1.5 0 6.4 9.6 11 13.4 4.6 3.9 15.8 11.3 19.5 13 .8.3.2.4-1.5 0-1.6-.3-3.1-1-3.3-1.5-.2-.5-.9-.9-1.5-.9-2.2 0-15.2-9.2-20.3-14.4-6.9-7-9.4-12.6-9.5-21.3-.1-13.3 4.2-23.5 13.8-32.7 3.3-3.1 5.1-4.6 5.8-4.6.3 0 1.8-.9 3.3-2 4.1-3 18.4-9 21.2-8.9l2.5.2-2.5.4zm335 50.2c0 2-3.9 3.3-14.5 4.6-13 1.7-26.9 6.7-58 20.9-2.7 1.3-6.6 2.9-8.5 3.6-1.9.7-3.9 1.7-4.5 2.1-1.6 1.1-30.1 12.8-40.5 16.6-5.2 1.8-10.2 3.8-11 4.2-.9.5-3.1 1.2-5 1.5-1.9.4-4.4 1.1-5.5 1.5-5.1 2.1-9.6 3.1-15.6 3.7-3.5.4-6.8 1-7.4 1.4-.5.5-5.5 1.1-11 1.5-5.5.4-11.1.9-12.5 1.3-4.9 1.1-24.2 1.4-25.3.3-.8-.8 1.3-1.1 7-1.1 4.5 0 9.3-.4 10.7-.9 1.3-.6 5.9-1.1 10-1.2 4.2-.1 7.6-.5 7.6-.9 0-.3 2.3-.7 5.2-.9 2.8-.1 7.6-.9 10.7-1.7 3-.8 6.6-1.4 7.8-1.4 1.3 0 2.3-.5 2.3-1 0-.6.8-1 1.8-1 1.5 0 18.2-6 24.7-8.9 1.1-.5 7.2-3.1 13.5-5.6 6.3-2.6 13.3-5.6 15.5-6.6 2.2-1 6.3-2.7 9-3.7 2.8-1.1 7.7-3.2 11-4.6 3.3-1.5 6.9-3.1 8-3.5 1.1-.5 5.5-2.5 9.7-4.5 4.2-2 7.9-3.6 8.2-3.6.2 0 3.4-1.4 6.9-3 3.6-1.7 7-3 7.6-3 .6 0 1.9-.4 2.9-.9 5.9-3.3 22.1-6.4 31-5.9 4 .1 7.2 0 7.2-.5 0-.4.2-.7.5-.7s.5.9.5 1.9zm5 1.1c1.1.8.9.9-1.2.8-1.6-.1-2.8-.6-2.8-1 0-1.1 2.2-1 4 .2zm-218 15.5c1 1.2 1 1.5-.2 1.5-.8 0-1.5-.7-1.5-1.5s.1-1.5.2-1.5c.2 0 .8.7 1.5 1.5zM58.5 342c2.2 1.1 3.3 1.9 2.5 1.9-.8 0-3.3-.8-5.5-1.9-2.2-1.1-3.3-1.9-2.5-1.9.8 0 3.3.8 5.5 1.9zm8.2 3.6c-.3.3-1.2.4-1.9.1-.8-.3-.5-.6.6-.6 1.1-.1 1.7.2 1.3.5zm9 3c-.3.3-1.2.4-1.9.1-.8-.3-.5-.6.6-.6 1.1-.1 1.7.2 1.3.5zm277.3 6.3c0 .6-.5 1.3-1.2 1.7-.6.4-.8.3-.4-.4.3-.5 0-1.3-.6-1.5-.8-.3-.6-.6.5-.6.9-.1 1.7.3 1.7.8zm-5.9 7.8c1.6 4.3 2.1 6.9 1.4 6.7-.7-.3-2.1 1.5-3.3 4.3-1.1 2.6-3.2 6.5-4.6 8.6-1.4 2.1-2.6 4-2.6 4.3 0 1.6-6.4 9.2-7.3 8.7-.6-.3-.7-.1-.4.4 1.2 2-14.5 18.9-16.4 17.7-.7-.4-.9-.3-.5.4.6 1.1-4.1 6.2-5.7 6.2-.4 0-.5.4-.2 1 .3.5.4 1 .1 1-.3 0-1.5-1.9-2.7-4.2-1.6-3.1-1.9-5.1-1.5-8.1.6-3.5.3-4.4-2.1-6.9-2.5-2.7-2.6-3.1-1.6-7.1 1.1-3.8 1-4.4-.9-6.5-1.4-1.4-3.3-2.2-5.4-2.2-1.7 0-3.7-.7-4.4-1.5-1.1-1.3-1.7-1.2-5.2.7-3.8 2.2-4 2.2-5 .4-.9-1.7-1.2-1.6-4.2 1.3l-3.3 3.2-6.5-7.3c-5.5-6.1-9.8-12.4-9.8-14.1 0-.2 5.1-1.2 11.3-2.1 6.1-.9 13.5-2.1 16.2-2.6 2.8-.6 13.6-2.3 24-4 18.4-2.9 27.8-4.5 32-5.4 5-1 5.9-.3 8.6 7.1zm-226.3 14.1c.6 6.9.9 12.9.6 13.3-.2.4 0 .9.5 1.1.5.1 1.2 1.6 1.5 3.3.4 1.6.3 2.3-.1 1.5-.5-.8-1.9-1.5-3.3-1.5-2.2 0-2.7-.7-3.7-5-.7-2.8-1.6-9.8-1.9-15.6l-.7-10.6 3 .4 3 .5 1.1 12.6zm11.1-10.8c3.6.5 8.5 1 10.9 1 3.9 0 4.2.2 4.2 2.7 0 4.7 2.2 7.6 6.3 8.6 3.6.9 4 .7 8.7-3.7 3.1-2.9 5.5-4.4 6.3-4 .6.4 2.6 1.8 4.4 3.2 2.6 1.9 4.1 2.3 8.5 2l5.2-.3 2 5.3c1.7 4.8 2.2 5.3 6 6.3 3.4.8 4.4 1.7 5.8 4.9 1.5 3.5 2.7 4.5 14.5 10.4l12.9 6.4-.5 4.4c-.3 2.3-1.9 6.2-3.5 8.6-2.6 3.8-2.9 5.1-2.7 11 .2 8.6-2.7 14.3-7.6 15.3-1.8.3-4.6 2.1-6.2 3.8-2.5 2.7-3.5 3.1-6.3 2.7-1.8-.4-6-1-9.3-1.6-3.3-.5-8.7-1.4-11.9-1.9-3.2-.6-6.3-.8-6.7-.5-.5.3-.9-1.8-.9-4.7 0-5.1-.1-5.3-6.9-11.9-4.3-4.3-8.5-9.8-11.4-14.9-4.6-8.1-4.6-8.1-3.2-12.2.8-2.3 1.2-4.5.9-5-.3-.5.8-3.7 2.5-7.1 1.6-3.5 3.3-7.5 3.6-9 .7-2.9 1.1-2.6-7-4.3-1.3-.3-4.6-2.7-7.3-5.4-3.4-3.4-6.4-5.3-9.3-6.1-4.7-1.3-11.9-4.7-11.9-5.6 0-.3.7-.3 1.6 0 1 .4 4.7 1.1 8.3 1.6zm37.4-.3c-.7.2-1.9.2-2.5 0-.7-.3-.2-.5 1.2-.5s1.9.2 1.3.5zm12.3 109.5c5.7 3.8 8 6 8.2 7.7.4 2.3.3 2.3-1.3.8-.9-1-2.9-1.7-4.4-1.7-4 0-12.1-4.7-12.1-7 0-1.7.9-5 1.4-5 .1 0 3.8 2.4 8.2 5.2z"/><path d="M283 27.9c0 .5.5 1.3 1 1.6.6.3 1 .2 1-.4 0-.5-.4-1.3-1-1.6-.5-.3-1-.2-1 .4zM285 38c0 .5.5 1 1 1 .6 0 1-.5 1-1 0-.6-.4-1-1-1-.5 0-1 .4-1 1zM288.6 42.5c.9 1.4 1.9 2.4 2.1 2.1.7-.7-1.6-4.6-2.8-4.6-.5 0-.2 1.1.7 2.5zM276 45.4c0 .2.8 1 1.8 1.7 1.5 1.3 1.6 1.2.3-.4s-2.1-2.1-2.1-1.3zM284.5 54.9c-.3.5 0 1.3.6 1.7.7.4.9.3.5-.4-.3-.5 0-1.3.6-1.5.9-.4 1-.6.1-.6-.6-.1-1.4.3-1.8.8zM327.7 129.1c.7.7 1.5 1 1.8.7.3-.3-.2-.9-1.2-1.2-1.4-.6-1.5-.5-.6.5zM329.1 135.3c.9.7 1.8 1.9 2.2 2.7.4 1 .6.9.6-.6.1-1.2-.6-2.5-1.5-2.8-2.5-.9-3-.6-1.3.7zM235 46.4c0 .3 2.3 2.4 5.1 4.6 4.4 3.5 5.7 4 8.3 3.4 1.7-.4 4-1.3 5.1-2.1 1.8-1.3 1.6-1.4-2.7-.8-4 .6-5.1.4-8-1.8-3.2-2.4-7.8-4.4-7.8-3.3zM110.9 55.7c-1.3 1.6-1.2 1.7.4.4.9-.7 1.7-1.5 1.7-1.7 0-.8-.8-.3-2.1 1.3zM100.8 74.7c.7.3 1.6.2 1.9-.1.4-.3-.2-.6-1.3-.5-1.1 0-1.4.3-.6.6zM194.5 104c-.3.6.1.7.9.4 1.8-.7 2.1-1.4.7-1.4-.6 0-1.3.4-1.6 1zM148 257.1c0 .5.5.7 1 .4.6-.3 1-.8 1-1.1 0-.2-.4-.4-1-.4-.5 0-1 .5-1 1.1zM165 310l-4.5.7 4 .1c2.2.1 4.7-.3 5.5-.8.8-.5 1.1-.9.5-.8-.5 0-3 .4-5.5.8zM170.8 312.7c.7.3 1.6.2 1.9-.1.4-.3-.2-.6-1.3-.5-1.1 0-1.4.3-.6.6zM167.8 314.7c.7.3 1.6.2 1.9-.1.4-.3-.2-.6-1.3-.5-1.1 0-1.4.3-.6.6z"/></svg>